<mxfile host="app.diagrams.net" modified="2023-08-16T16:57:51.549Z" agent="Mozilla/5.0 (X11; Ubuntu; Linux x86_64; rv:109.0) Gecko/20100101 Firefox/116.0" etag="nltHy9T045Zjbi9bR2MU" version="21.6.8" type="github">
  <diagram name="Página-1" id="feRc4wMNCI0Biom_shZm">
    <mxGraphModel dx="1374" dy="795" grid="1" gridSize="10" guides="1" tooltips="1" connect="1" arrows="1" fold="1" page="1" pageScale="1" pageWidth="827" pageHeight="1169" math="0" shadow="0">
      <root>
        <mxCell id="0" />
        <mxCell id="1" parent="0" />
        <mxCell id="miS-lUIL0OgM5NuOEFG1-1" value="Cliente" style="rounded=0;whiteSpace=wrap;html=1;" parent="1" vertex="1">
          <mxGeometry x="385" y="70" width="185" height="80" as="geometry" />
        </mxCell>
        <mxCell id="miS-lUIL0OgM5NuOEFG1-2" value="" style="endArrow=none;html=1;rounded=0;entryX=1.011;entryY=0.85;entryDx=0;entryDy=0;entryPerimeter=0;exitX=0.5;exitY=0;exitDx=0;exitDy=0;" parent="1" source="miS-lUIL0OgM5NuOEFG1-3" target="miS-lUIL0OgM5NuOEFG1-1" edge="1">
          <mxGeometry width="50" height="50" relative="1" as="geometry">
            <mxPoint x="40" y="230" as="sourcePoint" />
            <mxPoint x="100" y="210" as="targetPoint" />
            <Array as="points" />
          </mxGeometry>
        </mxCell>
        <mxCell id="miS-lUIL0OgM5NuOEFG1-3" value="" style="ellipse;whiteSpace=wrap;html=1;aspect=fixed;fillColor=#000000;" parent="1" vertex="1">
          <mxGeometry x="660" y="170" width="30" height="30" as="geometry" />
        </mxCell>
        <mxCell id="miS-lUIL0OgM5NuOEFG1-5" value="Nome" style="text;html=1;strokeColor=none;fillColor=none;align=center;verticalAlign=middle;whiteSpace=wrap;rounded=0;" parent="1" vertex="1">
          <mxGeometry x="700" y="180" width="60" height="30" as="geometry" />
        </mxCell>
        <mxCell id="miS-lUIL0OgM5NuOEFG1-6" value="" style="endArrow=none;html=1;rounded=0;exitX=1;exitY=0.75;exitDx=0;exitDy=0;" parent="1" source="miS-lUIL0OgM5NuOEFG1-1" target="miS-lUIL0OgM5NuOEFG1-7" edge="1">
          <mxGeometry width="50" height="50" relative="1" as="geometry">
            <mxPoint x="70" y="230" as="sourcePoint" />
            <mxPoint x="60" y="160" as="targetPoint" />
          </mxGeometry>
        </mxCell>
        <mxCell id="miS-lUIL0OgM5NuOEFG1-7" value="" style="ellipse;whiteSpace=wrap;html=1;aspect=fixed;fillColor=#000000;" parent="1" vertex="1">
          <mxGeometry x="700" y="130" width="30" height="30" as="geometry" />
        </mxCell>
        <mxCell id="miS-lUIL0OgM5NuOEFG1-8" value="CPF" style="text;html=1;strokeColor=none;fillColor=none;align=center;verticalAlign=middle;whiteSpace=wrap;rounded=0;" parent="1" vertex="1">
          <mxGeometry x="740" y="130" width="60" height="30" as="geometry" />
        </mxCell>
        <mxCell id="miS-lUIL0OgM5NuOEFG1-9" value="" style="ellipse;whiteSpace=wrap;html=1;aspect=fixed;" parent="1" vertex="1">
          <mxGeometry x="690" y="100" width="30" height="30" as="geometry" />
        </mxCell>
        <mxCell id="miS-lUIL0OgM5NuOEFG1-11" value="&lt;div&gt;Data&lt;/div&gt;&lt;div&gt;Nascimento&lt;br&gt;&lt;/div&gt;" style="text;html=1;strokeColor=none;fillColor=none;align=center;verticalAlign=middle;whiteSpace=wrap;rounded=0;" parent="1" vertex="1">
          <mxGeometry x="740" y="95" width="60" height="30" as="geometry" />
        </mxCell>
        <mxCell id="miS-lUIL0OgM5NuOEFG1-12" value="" style="endArrow=none;html=1;rounded=0;entryX=0.5;entryY=0;entryDx=0;entryDy=0;" parent="1" target="miS-lUIL0OgM5NuOEFG1-9" edge="1">
          <mxGeometry width="50" height="50" relative="1" as="geometry">
            <mxPoint x="570" y="120" as="sourcePoint" />
            <mxPoint x="100" y="220" as="targetPoint" />
            <Array as="points" />
          </mxGeometry>
        </mxCell>
        <mxCell id="miS-lUIL0OgM5NuOEFG1-14" value="" style="ellipse;whiteSpace=wrap;html=1;aspect=fixed;" parent="1" vertex="1">
          <mxGeometry x="690" y="60" width="30" height="30" as="geometry" />
        </mxCell>
        <mxCell id="miS-lUIL0OgM5NuOEFG1-15" value="" style="endArrow=none;html=1;rounded=0;exitX=1;exitY=0.5;exitDx=0;exitDy=0;entryX=0;entryY=0;entryDx=0;entryDy=0;" parent="1" target="miS-lUIL0OgM5NuOEFG1-14" edge="1" source="miS-lUIL0OgM5NuOEFG1-1">
          <mxGeometry width="50" height="50" relative="1" as="geometry">
            <mxPoint x="660" y="150" as="sourcePoint" />
            <mxPoint x="668" y="218" as="targetPoint" />
            <Array as="points" />
          </mxGeometry>
        </mxCell>
        <mxCell id="miS-lUIL0OgM5NuOEFG1-16" value="Endereço" style="text;html=1;strokeColor=none;fillColor=none;align=center;verticalAlign=middle;whiteSpace=wrap;rounded=0;" parent="1" vertex="1">
          <mxGeometry x="730" y="60" width="60" height="30" as="geometry" />
        </mxCell>
        <mxCell id="miS-lUIL0OgM5NuOEFG1-17" value="" style="ellipse;whiteSpace=wrap;html=1;aspect=fixed;" parent="1" vertex="1">
          <mxGeometry x="690" y="30" width="30" height="30" as="geometry" />
        </mxCell>
        <mxCell id="miS-lUIL0OgM5NuOEFG1-18" value="" style="endArrow=none;html=1;rounded=0;entryX=0.5;entryY=0;entryDx=0;entryDy=0;exitX=1;exitY=0.25;exitDx=0;exitDy=0;" parent="1" source="miS-lUIL0OgM5NuOEFG1-1" target="miS-lUIL0OgM5NuOEFG1-17" edge="1">
          <mxGeometry width="50" height="50" relative="1" as="geometry">
            <mxPoint x="527" y="130" as="sourcePoint" />
            <mxPoint x="210" y="220" as="targetPoint" />
            <Array as="points" />
          </mxGeometry>
        </mxCell>
        <mxCell id="miS-lUIL0OgM5NuOEFG1-20" value="Telefone" style="text;html=1;strokeColor=none;fillColor=none;align=center;verticalAlign=middle;whiteSpace=wrap;rounded=0;" parent="1" vertex="1">
          <mxGeometry x="730" y="30" width="60" height="30" as="geometry" />
        </mxCell>
        <mxCell id="miS-lUIL0OgM5NuOEFG1-22" value="" style="ellipse;whiteSpace=wrap;html=1;aspect=fixed;fillColor=#000000;" parent="1" vertex="1">
          <mxGeometry x="30" y="460" width="30" height="30" as="geometry" />
        </mxCell>
        <mxCell id="miS-lUIL0OgM5NuOEFG1-23" value="" style="endArrow=none;html=1;rounded=0;entryX=0.121;entryY=0.663;entryDx=0;entryDy=0;entryPerimeter=0;" parent="1" edge="1">
          <mxGeometry width="50" height="50" relative="1" as="geometry">
            <mxPoint x="43.499999999999986" y="456.96000000000004" as="sourcePoint" />
            <mxPoint x="46.489999999999995" y="380" as="targetPoint" />
          </mxGeometry>
        </mxCell>
        <mxCell id="miS-lUIL0OgM5NuOEFG1-24" value="Código" style="text;html=1;strokeColor=none;fillColor=none;align=center;verticalAlign=middle;whiteSpace=wrap;rounded=0;" parent="1" vertex="1">
          <mxGeometry x="10" y="490" width="60" height="30" as="geometry" />
        </mxCell>
        <mxCell id="miS-lUIL0OgM5NuOEFG1-25" value="" style="ellipse;whiteSpace=wrap;html=1;aspect=fixed;" parent="1" vertex="1">
          <mxGeometry x="70" y="460" width="30" height="30" as="geometry" />
        </mxCell>
        <mxCell id="miS-lUIL0OgM5NuOEFG1-27" value="Nome" style="text;html=1;strokeColor=none;fillColor=none;align=center;verticalAlign=middle;whiteSpace=wrap;rounded=0;" parent="1" vertex="1">
          <mxGeometry x="50" y="490" width="60" height="30" as="geometry" />
        </mxCell>
        <mxCell id="miS-lUIL0OgM5NuOEFG1-28" value="" style="ellipse;whiteSpace=wrap;html=1;aspect=fixed;" parent="1" vertex="1">
          <mxGeometry x="110" y="470" width="30" height="30" as="geometry" />
        </mxCell>
        <mxCell id="miS-lUIL0OgM5NuOEFG1-29" value="" style="endArrow=none;html=1;rounded=0;" parent="1" edge="1">
          <mxGeometry width="50" height="50" relative="1" as="geometry">
            <mxPoint x="124.5" y="470" as="sourcePoint" />
            <mxPoint x="125" y="380" as="targetPoint" />
          </mxGeometry>
        </mxCell>
        <mxCell id="miS-lUIL0OgM5NuOEFG1-30" value="Endereço" style="text;html=1;strokeColor=none;fillColor=none;align=center;verticalAlign=middle;whiteSpace=wrap;rounded=0;" parent="1" vertex="1">
          <mxGeometry x="95" y="500" width="60" height="30" as="geometry" />
        </mxCell>
        <mxCell id="miS-lUIL0OgM5NuOEFG1-31" value="" style="ellipse;whiteSpace=wrap;html=1;aspect=fixed;" parent="1" vertex="1">
          <mxGeometry x="150" y="470" width="30" height="30" as="geometry" />
        </mxCell>
        <mxCell id="miS-lUIL0OgM5NuOEFG1-34" value="" style="endArrow=none;html=1;rounded=0;exitX=0.5;exitY=0;exitDx=0;exitDy=0;entryX=0.835;entryY=1;entryDx=0;entryDy=0;entryPerimeter=0;" parent="1" source="miS-lUIL0OgM5NuOEFG1-31" target="miS-lUIL0OgM5NuOEFG1-41" edge="1">
          <mxGeometry width="50" height="50" relative="1" as="geometry">
            <mxPoint x="404.5" y="440" as="sourcePoint" />
            <mxPoint x="170" y="390" as="targetPoint" />
          </mxGeometry>
        </mxCell>
        <mxCell id="miS-lUIL0OgM5NuOEFG1-35" value="&lt;div&gt;Data &lt;br&gt;&lt;/div&gt;&lt;div&gt;Criação&lt;br&gt;&lt;/div&gt;" style="text;html=1;strokeColor=none;fillColor=none;align=center;verticalAlign=middle;whiteSpace=wrap;rounded=0;" parent="1" vertex="1">
          <mxGeometry x="150" y="510" width="60" height="30" as="geometry" />
        </mxCell>
        <mxCell id="miS-lUIL0OgM5NuOEFG1-36" value="" style="endArrow=none;html=1;rounded=0;" parent="1" edge="1">
          <mxGeometry width="50" height="50" relative="1" as="geometry">
            <mxPoint x="90" y="460" as="sourcePoint" />
            <mxPoint x="90" y="380" as="targetPoint" />
            <Array as="points" />
          </mxGeometry>
        </mxCell>
        <mxCell id="miS-lUIL0OgM5NuOEFG1-41" value="Agência" style="rounded=0;whiteSpace=wrap;html=1;" parent="1" vertex="1">
          <mxGeometry x="20" y="320" width="170" height="60" as="geometry" />
        </mxCell>
        <mxCell id="miS-lUIL0OgM5NuOEFG1-42" value="Conta" style="rounded=0;whiteSpace=wrap;html=1;" parent="1" vertex="1">
          <mxGeometry x="370" y="310" width="180" height="90" as="geometry" />
        </mxCell>
        <mxCell id="miS-lUIL0OgM5NuOEFG1-44" value="" style="ellipse;whiteSpace=wrap;html=1;aspect=fixed;fillColor=#000000;" parent="1" vertex="1">
          <mxGeometry x="650" y="335" width="30" height="30" as="geometry" />
        </mxCell>
        <mxCell id="miS-lUIL0OgM5NuOEFG1-45" value="" style="endArrow=none;html=1;rounded=0;exitX=1.006;exitY=0.367;exitDx=0;exitDy=0;exitPerimeter=0;entryX=0;entryY=0.5;entryDx=0;entryDy=0;" parent="1" edge="1" target="miS-lUIL0OgM5NuOEFG1-44" source="miS-lUIL0OgM5NuOEFG1-42">
          <mxGeometry width="50" height="50" relative="1" as="geometry">
            <mxPoint x="654.5" y="450" as="sourcePoint" />
            <mxPoint x="654.5" y="380" as="targetPoint" />
          </mxGeometry>
        </mxCell>
        <mxCell id="miS-lUIL0OgM5NuOEFG1-46" value="Código" style="text;html=1;strokeColor=none;fillColor=none;align=center;verticalAlign=middle;whiteSpace=wrap;rounded=0;" parent="1" vertex="1">
          <mxGeometry x="680" y="335" width="60" height="30" as="geometry" />
        </mxCell>
        <mxCell id="miS-lUIL0OgM5NuOEFG1-47" value="" style="ellipse;whiteSpace=wrap;html=1;aspect=fixed;" parent="1" vertex="1">
          <mxGeometry x="640" y="300" width="30" height="30" as="geometry" />
        </mxCell>
        <mxCell id="miS-lUIL0OgM5NuOEFG1-48" value="Tipo" style="text;html=1;strokeColor=none;fillColor=none;align=center;verticalAlign=middle;whiteSpace=wrap;rounded=0;" parent="1" vertex="1">
          <mxGeometry x="660" y="300" width="60" height="30" as="geometry" />
        </mxCell>
        <mxCell id="miS-lUIL0OgM5NuOEFG1-49" value="" style="endArrow=none;html=1;rounded=0;exitX=0.5;exitY=0;exitDx=0;exitDy=0;entryX=1.006;entryY=0.122;entryDx=0;entryDy=0;entryPerimeter=0;" parent="1" edge="1" target="miS-lUIL0OgM5NuOEFG1-42" source="miS-lUIL0OgM5NuOEFG1-47">
          <mxGeometry width="50" height="50" relative="1" as="geometry">
            <mxPoint x="400" y="470" as="sourcePoint" />
            <mxPoint x="399.5" y="420" as="targetPoint" />
          </mxGeometry>
        </mxCell>
        <mxCell id="miS-lUIL0OgM5NuOEFG1-53" value="" style="endArrow=none;html=1;rounded=0;entryX=1;entryY=0.5;entryDx=0;entryDy=0;" parent="1" target="miS-lUIL0OgM5NuOEFG1-41" edge="1">
          <mxGeometry width="50" height="50" relative="1" as="geometry">
            <mxPoint x="220" y="360" as="sourcePoint" />
            <mxPoint x="240" y="410" as="targetPoint" />
          </mxGeometry>
        </mxCell>
        <mxCell id="DNIvAONIN89-vVzrqF2T-6" value="" style="edgeStyle=orthogonalEdgeStyle;rounded=0;orthogonalLoop=1;jettySize=auto;html=1;" edge="1" parent="1" source="miS-lUIL0OgM5NuOEFG1-60" target="miS-lUIL0OgM5NuOEFG1-42">
          <mxGeometry relative="1" as="geometry" />
        </mxCell>
        <mxCell id="miS-lUIL0OgM5NuOEFG1-60" value="" style="ellipse;whiteSpace=wrap;html=1;aspect=fixed;" parent="1" vertex="1">
          <mxGeometry x="640" y="370" width="30" height="30" as="geometry" />
        </mxCell>
        <mxCell id="DNIvAONIN89-vVzrqF2T-3" value="" style="edgeStyle=orthogonalEdgeStyle;rounded=0;orthogonalLoop=1;jettySize=auto;html=1;" edge="1" parent="1" source="DNIvAONIN89-vVzrqF2T-2" target="miS-lUIL0OgM5NuOEFG1-41">
          <mxGeometry relative="1" as="geometry" />
        </mxCell>
        <mxCell id="DNIvAONIN89-vVzrqF2T-4" value="" style="edgeStyle=orthogonalEdgeStyle;rounded=0;orthogonalLoop=1;jettySize=auto;html=1;" edge="1" parent="1" source="DNIvAONIN89-vVzrqF2T-2" target="miS-lUIL0OgM5NuOEFG1-42">
          <mxGeometry relative="1" as="geometry" />
        </mxCell>
        <mxCell id="DNIvAONIN89-vVzrqF2T-2" value="Cria" style="rhombus;whiteSpace=wrap;html=1;" vertex="1" parent="1">
          <mxGeometry x="220" y="315" width="120" height="80" as="geometry" />
        </mxCell>
        <mxCell id="DNIvAONIN89-vVzrqF2T-7" value="Agencia" style="text;html=1;strokeColor=none;fillColor=none;align=center;verticalAlign=middle;whiteSpace=wrap;rounded=0;" vertex="1" parent="1">
          <mxGeometry x="675" y="365" width="60" height="30" as="geometry" />
        </mxCell>
        <mxCell id="DNIvAONIN89-vVzrqF2T-9" value="" style="edgeStyle=orthogonalEdgeStyle;rounded=0;orthogonalLoop=1;jettySize=auto;html=1;" edge="1" parent="1" source="DNIvAONIN89-vVzrqF2T-8" target="miS-lUIL0OgM5NuOEFG1-42">
          <mxGeometry relative="1" as="geometry" />
        </mxCell>
        <mxCell id="DNIvAONIN89-vVzrqF2T-8" value="" style="ellipse;whiteSpace=wrap;html=1;aspect=fixed;" vertex="1" parent="1">
          <mxGeometry x="640" y="410" width="30" height="30" as="geometry" />
        </mxCell>
        <mxCell id="DNIvAONIN89-vVzrqF2T-10" value="Dono" style="text;html=1;strokeColor=none;fillColor=none;align=center;verticalAlign=middle;whiteSpace=wrap;rounded=0;" vertex="1" parent="1">
          <mxGeometry x="680" y="410" width="60" height="30" as="geometry" />
        </mxCell>
        <mxCell id="DNIvAONIN89-vVzrqF2T-12" value="" style="edgeStyle=orthogonalEdgeStyle;rounded=0;orthogonalLoop=1;jettySize=auto;html=1;" edge="1" parent="1" source="DNIvAONIN89-vVzrqF2T-11" target="miS-lUIL0OgM5NuOEFG1-42">
          <mxGeometry relative="1" as="geometry" />
        </mxCell>
        <mxCell id="DNIvAONIN89-vVzrqF2T-11" value="" style="ellipse;whiteSpace=wrap;html=1;aspect=fixed;" vertex="1" parent="1">
          <mxGeometry x="610" y="260" width="30" height="30" as="geometry" />
        </mxCell>
        <mxCell id="DNIvAONIN89-vVzrqF2T-13" value="Saldo" style="text;html=1;strokeColor=none;fillColor=none;align=center;verticalAlign=middle;whiteSpace=wrap;rounded=0;" vertex="1" parent="1">
          <mxGeometry x="640" y="260" width="60" height="30" as="geometry" />
        </mxCell>
        <mxCell id="DNIvAONIN89-vVzrqF2T-15" value="" style="edgeStyle=orthogonalEdgeStyle;rounded=0;orthogonalLoop=1;jettySize=auto;html=1;" edge="1" parent="1" source="DNIvAONIN89-vVzrqF2T-14" target="miS-lUIL0OgM5NuOEFG1-42">
          <mxGeometry relative="1" as="geometry" />
        </mxCell>
        <mxCell id="DNIvAONIN89-vVzrqF2T-16" value="" style="edgeStyle=orthogonalEdgeStyle;rounded=0;orthogonalLoop=1;jettySize=auto;html=1;" edge="1" parent="1" source="DNIvAONIN89-vVzrqF2T-14" target="miS-lUIL0OgM5NuOEFG1-1">
          <mxGeometry relative="1" as="geometry" />
        </mxCell>
        <mxCell id="DNIvAONIN89-vVzrqF2T-14" value="Possui" style="rhombus;whiteSpace=wrap;html=1;" vertex="1" parent="1">
          <mxGeometry x="340" y="190" width="155" height="80" as="geometry" />
        </mxCell>
        <mxCell id="DNIvAONIN89-vVzrqF2T-18" value="" style="edgeStyle=orthogonalEdgeStyle;rounded=0;orthogonalLoop=1;jettySize=auto;html=1;" edge="1" parent="1" source="DNIvAONIN89-vVzrqF2T-17" target="miS-lUIL0OgM5NuOEFG1-42">
          <mxGeometry relative="1" as="geometry" />
        </mxCell>
        <mxCell id="DNIvAONIN89-vVzrqF2T-20" value="" style="edgeStyle=orthogonalEdgeStyle;rounded=0;orthogonalLoop=1;jettySize=auto;html=1;" edge="1" parent="1" source="DNIvAONIN89-vVzrqF2T-17" target="DNIvAONIN89-vVzrqF2T-19">
          <mxGeometry relative="1" as="geometry" />
        </mxCell>
        <mxCell id="DNIvAONIN89-vVzrqF2T-17" value="Realização" style="rhombus;whiteSpace=wrap;html=1;" vertex="1" parent="1">
          <mxGeometry x="355" y="440" width="140" height="80" as="geometry" />
        </mxCell>
        <mxCell id="DNIvAONIN89-vVzrqF2T-22" value="" style="edgeStyle=orthogonalEdgeStyle;rounded=0;orthogonalLoop=1;jettySize=auto;html=1;" edge="1" parent="1" source="DNIvAONIN89-vVzrqF2T-19" target="DNIvAONIN89-vVzrqF2T-21">
          <mxGeometry relative="1" as="geometry" />
        </mxCell>
        <mxCell id="DNIvAONIN89-vVzrqF2T-19" value="Transação" style="rounded=0;whiteSpace=wrap;html=1;" vertex="1" parent="1">
          <mxGeometry x="370" y="555" width="120" height="60" as="geometry" />
        </mxCell>
        <mxCell id="DNIvAONIN89-vVzrqF2T-26" value="" style="edgeStyle=orthogonalEdgeStyle;rounded=0;orthogonalLoop=1;jettySize=auto;html=1;" edge="1" parent="1" source="DNIvAONIN89-vVzrqF2T-21" target="DNIvAONIN89-vVzrqF2T-23">
          <mxGeometry relative="1" as="geometry" />
        </mxCell>
        <mxCell id="DNIvAONIN89-vVzrqF2T-27" style="edgeStyle=orthogonalEdgeStyle;rounded=0;orthogonalLoop=1;jettySize=auto;html=1;" edge="1" parent="1" source="DNIvAONIN89-vVzrqF2T-21" target="DNIvAONIN89-vVzrqF2T-24">
          <mxGeometry relative="1" as="geometry" />
        </mxCell>
        <mxCell id="DNIvAONIN89-vVzrqF2T-21" value="" style="triangle;whiteSpace=wrap;html=1;direction=north;" vertex="1" parent="1">
          <mxGeometry x="360" y="650" width="130" height="36" as="geometry" />
        </mxCell>
        <mxCell id="DNIvAONIN89-vVzrqF2T-23" value="Deposito" style="rounded=0;whiteSpace=wrap;html=1;" vertex="1" parent="1">
          <mxGeometry x="280" y="730" width="120" height="60" as="geometry" />
        </mxCell>
        <mxCell id="DNIvAONIN89-vVzrqF2T-24" value="Saque" style="rounded=0;whiteSpace=wrap;html=1;" vertex="1" parent="1">
          <mxGeometry x="470" y="730" width="120" height="60" as="geometry" />
        </mxCell>
        <mxCell id="DNIvAONIN89-vVzrqF2T-33" value="" style="edgeStyle=orthogonalEdgeStyle;rounded=0;orthogonalLoop=1;jettySize=auto;html=1;" edge="1" parent="1" source="DNIvAONIN89-vVzrqF2T-28" target="DNIvAONIN89-vVzrqF2T-19">
          <mxGeometry relative="1" as="geometry" />
        </mxCell>
        <mxCell id="DNIvAONIN89-vVzrqF2T-28" value="" style="ellipse;whiteSpace=wrap;html=1;aspect=fixed;fillColor=#000000;" vertex="1" parent="1">
          <mxGeometry x="570" y="525" width="30" height="30" as="geometry" />
        </mxCell>
        <mxCell id="DNIvAONIN89-vVzrqF2T-32" value="" style="edgeStyle=orthogonalEdgeStyle;rounded=0;orthogonalLoop=1;jettySize=auto;html=1;" edge="1" parent="1" source="DNIvAONIN89-vVzrqF2T-29" target="DNIvAONIN89-vVzrqF2T-19">
          <mxGeometry relative="1" as="geometry" />
        </mxCell>
        <mxCell id="DNIvAONIN89-vVzrqF2T-29" value="" style="ellipse;whiteSpace=wrap;html=1;aspect=fixed;" vertex="1" parent="1">
          <mxGeometry x="580" y="560" width="30" height="30" as="geometry" />
        </mxCell>
        <mxCell id="DNIvAONIN89-vVzrqF2T-31" value="" style="edgeStyle=orthogonalEdgeStyle;rounded=0;orthogonalLoop=1;jettySize=auto;html=1;" edge="1" parent="1" source="DNIvAONIN89-vVzrqF2T-30" target="DNIvAONIN89-vVzrqF2T-19">
          <mxGeometry relative="1" as="geometry" />
        </mxCell>
        <mxCell id="DNIvAONIN89-vVzrqF2T-30" value="" style="ellipse;whiteSpace=wrap;html=1;aspect=fixed;" vertex="1" parent="1">
          <mxGeometry x="590" y="590" width="30" height="30" as="geometry" />
        </mxCell>
        <mxCell id="DNIvAONIN89-vVzrqF2T-35" value="tipo" style="text;html=1;strokeColor=none;fillColor=none;align=center;verticalAlign=middle;whiteSpace=wrap;rounded=0;" vertex="1" parent="1">
          <mxGeometry x="610" y="525" width="60" height="30" as="geometry" />
        </mxCell>
        <mxCell id="DNIvAONIN89-vVzrqF2T-36" value="origem" style="text;html=1;strokeColor=none;fillColor=none;align=center;verticalAlign=middle;whiteSpace=wrap;rounded=0;" vertex="1" parent="1">
          <mxGeometry x="610" y="560" width="60" height="30" as="geometry" />
        </mxCell>
        <mxCell id="DNIvAONIN89-vVzrqF2T-37" value="valor" style="text;html=1;strokeColor=none;fillColor=none;align=center;verticalAlign=middle;whiteSpace=wrap;rounded=0;" vertex="1" parent="1">
          <mxGeometry x="620" y="600" width="60" height="30" as="geometry" />
        </mxCell>
      </root>
    </mxGraphModel>
  </diagram>
</mxfile>
